<svg width="40" height="40" viewBox="0 0 40 40" fill="none" xmlns="http://www.w3.org/2000/svg">
  <rect width="40" height="40" rx="8" fill="#3776AB"/>
  <path d="M20 8C13.373 8 8 13.373 8 20C8 26.627 13.373 32 20 32C26.627 32 32 26.627 32 20C32 13.373 26.627 8 20 8ZM15.5 23.5C14.672 23.5 14 22.828 14 22C14 21.172 14.672 20.5 15.5 20.5C16.328 20.5 17 21.172 17 22C17 22.828 16.328 23.5 15.5 23.5ZM20 27C19.172 27 18.5 26.328 18.5 25.5C18.5 24.672 19.172 24 20 24C20.828 24 21.5 24.672 21.5 25.5C21.5 26.328 20.828 27 20 27ZM24.5 23.5C23.672 23.5 23 22.828 23 22C23 21.172 23.672 20.5 24.5 20.5C25.328 20.5 26 21.172 26 22C26 22.828 25.328 23.5 24.5 23.5ZM24.5 17C23.672 17 23 16.328 23 15.5C23 14.672 23.672 14 24.5 14C25.328 14 26 14.672 26 15.5C26 16.328 25.328 17 24.5 17ZM20 17C19.172 17 18.5 16.328 18.5 15.5C18.5 14.672 19.172 14 20 14C20.828 14 21.5 14.672 21.5 15.5C21.5 16.328 20.828 17 20 17ZM15.5 17C14.672 17 14 16.328 14 15.5C14 14.672 14.672 14 15.5 14C16.328 14 17 14.672 17 15.5C17 16.328 16.328 17 15.5 17Z" fill="white"/>
</svg>
